<svg id="Слой_1" data-name="Слой 1" xmlns="http://www.w3.org/2000/svg" viewBox="0 0 1500 1500"><path d="M750,1483.5A733.7,733.7,0,0,1,464.49,74.14a733.7,733.7,0,0,1,571,1351.73A729,729,0,0,1,750,1483.5Z" style="fill:#ced2db"/><path d="M750,33a713.5,713.5,0,0,1,400.86,122.43,719.18,719.18,0,0,1,259.81,315.49,716,716,0,0,1-66.1,679.94,719.18,719.18,0,0,1-315.49,259.81,716,716,0,0,1-679.94-66.1A719.18,719.18,0,0,1,89.33,1029.08a716,716,0,0,1,66.1-679.94A719.18,719.18,0,0,1,470.92,89.33,712.45,712.45,0,0,1,750,33h0m0-33h0C335.79,0,0,335.79,0,750H0c0,414.21,335.79,750,750,750h0c414.21,0,750-335.79,750-750h0C1500,335.79,1164.21,0,750,0Z"/><path d="M1090.44,293.16A134.18,134.18,0,0,1,1063,375.79c-7.13,9.52-8.17,18.3-3.74,29.32,24.53,61,65.81,105,128,128.32,15,5.61,17.41,15.43,6.88,27.59a68.29,68.29,0,0,1-8.21,7.92c-10.65,8.79-11.72,12.71-6.48,25.82,4.67,11.66,9.49,23.27,14.06,35,4.83,12.38,2.78,17.45-9,23.18-12.7,6.17-12.72,7.48-11,21.91,4.76,39.52-2,76.16-34.19,102.77-20.88,17.29-28.59,36.77-25.56,63.74,4.38,39.07-4.94,76.24-23.72,110.83-30.58,56.32-77.71,84.25-142,82-6.62-.23-10.05,1.32-13.27,7.59-15.3,29.79-50.27,32.43-71.15,5.46-3.82-4.93-7.06-5.93-13.07-5.11a751.67,751.67,0,0,1-173.72,3.24c-10.5-1-21-2.26-31.39-3.9-4.44-.7-6.11,1.64-8.36,4.55-12.92,16.72-29.43,23.07-46.79,18.17a38,38,0,0,1-25.5-22.47c-2.9-6.86-6.83-7.84-13.25-7.51a160.6,160.6,0,0,1-53-6.1c-44.54-12.84-73.29-43.54-93.05-83.72C389.44,912,382.44,877.52,385.45,841.3c.17-2,0-4.12.33-6.15,3.2-22.24-3.82-39.69-22-53.8-29.09-22.6-39.4-54.27-39.43-89.93a109.41,109.41,0,0,1,2.38-20.92c1.49-7.55-1.1-12.28-7.72-15.75-17.57-9.21-18.29-11.37-11-30,4.28-10.88,8.72-21.69,13-32.58,4.05-10.36,2.62-15.1-5.86-22.33A82.77,82.77,0,0,1,304,558.82c-8.21-10.3-5.36-20.07,7.22-24.68,25-9.19,47.72-22.16,67.7-39.8,29.15-25.72,50.05-57,63.43-93.48,3.45-9.4.6-16.76-4.93-24.42C409,337.16,402,294.06,417.1,248.12c27.19-82.46,114.72-109.31,184.06-57,14.92,11.26,27.43,24.74,36.72,41,3.58,6.24,7.45,8.43,14.93,6.59q96.5-23.84,193.11,0c8.46,2.1,12.44-.38,16.85-7.47,23.28-37.44,56.57-60.1,100.7-65.95,49.36-6.54,97,24.07,117,75.55a184.78,184.78,0,0,1,7.21,24.37C1089.87,274.35,1090.37,283.75,1090.44,293.16Z"/><path d="M1157.83,551c-14.27,1.28-19.2,9.4-14.27,22.14,5.17,13.35,10.91,26.48,16.34,39.73s3.09,20-9.37,26.68c-8.93,4.8-10.69,10-6.55,21.38a93.79,93.79,0,0,1,.28,65.35c-7.06,20-21.14,34.14-38.27,45.61-6,4-12.94,5.32-20.13,5.17-43.92-.91-84.49,10-121.73,33.59-12.84,8.13-26.35,15.13-41.56,18.23-28.39,5.8-48.39-9.26-49.63-38-1.23-28.57,8.66-53.53,26.57-75.24,7-8.48,15-16.74,28.55-11.36,5.73,2.27,10.16-2.23,11.8-7.79,2.16-7.28,1.3-14.21-6.08-18.36-7.55-4.25-15.69-4.25-23.86-2a49.8,49.8,0,0,0-22.28,13.56c-29.47,30.2-43.3,66.84-40.29,108.59,3.2,44.23,41.71,68.29,85.71,55.45,15.27-4.45,29.34-11.66,43-19.5,25.69-14.71,52.74-25.21,82.41-28.1,4.08-.4,8.18-.83,12.27-.83,9.26,0,15.85,5.47,16.9,14.45,5,42.32-.12,82.77-21,120.8-27,49.17-68.88,69.58-123.69,66.43-2.92-.17-5.83-.61-8.76-.83-11.72-.86-15,1.5-17.86,13-1.06,4.25-1.76,8.64-4.72,12.13-4.61,5.44-10.48,7.51-17.33,5.65-6.11-1.66-8.62-6-9.07-12.4-.75-10.83-5.44-14.92-16.37-15.23-19.77-.57-39,4-58.52,6.09a581.12,581.12,0,0,1-147.31-3.37c-10.73-1.59-21.46-3.24-32.37-2.73-9.76.45-15.19,4.64-15.8,14-.52,7.9-3.37,12.9-11.41,14.08-7.8,1.14-14.73-3.18-17.92-11.16a64.17,64.17,0,0,1-2.16-7.56c-2.92-11-6.13-13.76-17.33-12.53a163.86,163.86,0,0,1-54.2-2.76c-41.27-9.25-66.71-36.9-83.87-73.61C414.12,900.13,407.56,869,411.6,836c.53-4.35.28-8.79.5-13.19.59-11.73,6.8-17.9,18.51-17.37a190.66,190.66,0,0,1,82.92,23.32c19.27,10.4,38.14,21.71,59.87,26.69,41.4,9.47,77.48-16.92,79.49-59.41,1.81-38.19-10.26-72.18-35.47-101-10.87-12.45-23.93-21.87-41.93-19.87-12.06,1.34-18.13,8.9-15.94,19.45,1.67,8.07,6.76,11.58,14.57,9.1,6.59-2.1,12.22-1.07,17.12,3.39,27.53,25.06,39.6,56.44,34.42,93.08-3.19,22.54-23.41,33.72-47.08,29.09-15.19-3-28.8-9.75-41.74-17.81-25.37-15.81-52.28-27.48-82.05-31.62-9.85-1.38-20-3.37-29.72-2.38-25.89,2.62-43.15-10.81-57.24-29.47-19-25.17-22.43-53.51-13.07-83.32C360,648,360,646.79,345.87,637.69c-7.42-4.77-9.86-11.82-6.44-20.62,4.87-12.53,10.16-24.9,15.27-37.33,1-2.43,2.1-4.83,2.94-7.31,4.14-12.29-.44-19.76-14.43-21.52,17.78-9.37,33.85-19.32,48.39-31.6,40.64-34.31,67.19-77.51,81.62-128.47,2.36-8.31-.49-14.35-6.14-20.56-27.41-30.07-37.22-65.56-28-105,16.15-68.94,90.95-94.61,147.79-51.42,16.22,12.33,28.05,28.1,36.5,46.54,5.27,11.51,9.7,13.54,21.41,9.5,28.63-9.86,58.05-13.32,88.24-12.27,19,.65,38.11-.15,57.17.16,21.83.35,43,4.78,63.78,11.38,14.64,4.66,17.43,3.47,23.92-10.13,16.08-33.7,41.29-56.87,78.5-64.16,52.44-10.28,98.36,23.16,106.81,76.64,6,38.11-4.35,71.34-30.29,99.63-5.82,6.33-7.4,12.39-5,20.67,20.17,69.15,60.78,121.87,124.57,156.17C1153.8,548.64,1155,549.4,1157.83,551Z" style="fill:#ced2db"/><path d="M1039.44,1169c22.83-16.55,42.12-15.35,58.9,3.65,9.58-13.58,23.15-17,38.62-14.29,16.88,3,27,13.77,27.91,31.26.92,17,.3,34,.47,51,0,3.23-.89,4.46-4.39,4.8-13.9,1.36-14.43,1-14.45-12.5,0-12.31.22-24.64-.19-36.94-.49-14.66-6.93-21.22-20-21.23-13.27,0-22,8-22.51,21.69s-.83,27.59-.06,41.33c.49,8.78-4.51,7.5-9.82,7.61-5.6.11-10.1.65-9.61-7.82.79-13.73.37-27.55.12-41.33-.25-14.14-6.61-21.16-18.84-21.48-13.57-.35-22.67,7.12-23.44,20.66a385.61,385.61,0,0,0-.36,42.19c.51,9.52-5.27,7.33-10.53,7.79-6,.52-8.84-.48-8.68-7.78.54-23.44.06-46.91.37-70.36,0-2.89-3.32-8.17,3.37-8.76,5.32-.46,10.8-1,11.91,6.49A32.14,32.14,0,0,0,1039.44,1169Z"/><path d="M472,1184.64c0,17.88-.25,35.76.14,53.63.12,5.91-1.78,7.35-7.43,7.25-12.93-.24-13,.06-13.05-13-.09-11.13-.33-22.28-.07-33.4.11-4.78-1-6.65-6.23-6.55q-25.93.48-51.87,0c-5.12-.1-6.34,1.57-6.23,6.42.28,13.18-.2,26.38.15,39.56.14,5.33-1.24,7.72-6.8,6.86a17.5,17.5,0,0,0-5.26,0c-6.82,1.06-9-1.44-8.89-8.55.37-34.87.58-69.76-.09-104.62-.2-10.55,6-7.87,11.71-8.51,7-.77,9.83,1.2,9.4,8.86-.66,12,.05,24-.21,36-.1,4.52,1.14,6.06,5.86,6,17.29-.27,34.59-.35,51.87,0,5.82.12,6.76-2.21,6.66-7.22-.23-12.3.3-24.62,0-36.92-.16-5.51,1.64-6.87,7-6.81,13.4.13,13.4-.15,13.4,13.45Z"/><path d="M909.76,1184.54c0,17.88-.21,35.77.12,53.64.11,5.83-1.71,7.46-7.5,7.35-13.25-.25-13.27.08-13.3-13.55,0-11.14-.23-22.29,0-33.42.11-4.48-1-6-5.78-6q-26.39.44-52.77,0c-4.9-.09-5.88,1.69-5.83,6,.15,13.19-.34,26.39,0,39.57.16,5.79-1.53,8.06-7.35,7.25a36.69,36.69,0,0,0-7.91,0c-3.7.3-5.2-1-5.19-4.91q.17-55.85,0-111.69c0-3.8,1.25-4.86,5-5.08,15.24-.91,15.25-1.06,15.37,14.2.09,10,.28,19.94.07,29.9-.09,4.58.73,6.89,6.16,6.8,17.59-.32,35.18-.25,52.77,0,4.36.06,5.44-1.47,5.37-5.57-.2-12.6.21-25.21-.12-37.81-.14-5.46,1-8.39,7.12-7.43a20.38,20.38,0,0,0,6.14,0c6.52-1,7.74,2.12,7.63,8C909.54,1149.36,909.76,1167,909.76,1184.54Z"/><path d="M609.47,1169.15c19.82-16.18,44.33-14.6,60.06,2.79,14.75,16.31,14,45.25-1.67,61-16.27,16.36-41.1,16.57-59.7-.09-2.68,4.91-1.75,13.46-11.35,11.61-3.77-.73-5.64-1.09-5.62-5.51.15-36.05.21-72.1,0-108.15,0-7.33,4.89-5.28,8.35-5,3.8.3,10.13-3.31,10,5.27C609.33,1143.29,609.47,1155.56,609.47,1169.15Z"/><path d="M1004.69,1215c0,7.33.09,14.65-.05,22-.06,2.93,1.42,7.18-3.68,7.31-3.75.1-8.64,2.24-10.51-3.36-1.64-4.94-3.28-4.2-7.24-1.67-12.8,8.18-26.75,8.39-40.23,2.15-9.84-4.56-14.53-13.14-13.79-24.35.67-10.08,6.32-17.53,17-21.06,11.14-3.68,22.7-3.26,33.88-.83,6.49,1.42,6.16-1.36,5.62-5.56-1-8.12-5.17-13.41-13.57-15-8.95-1.65-17.4,0-25.82,3-2.62.93-6.5,5.45-7.9,1.46-1.51-4.29-3.06-10.59,1.8-14.6,12.54-10.33,42.52-9,54.48,2.13,6.63,6.19,9.22,14.16,9.49,22.91.27,8.48.06,17,.06,25.47Z"/><path d="M550.32,1236.1c-12.85,10.54-26.8,11.26-41.21,7a25,25,0,0,1-17.68-23.73c-.12-11.13,6.07-19.66,17.67-23.45,10.86-3.56,22.16-3.15,33-.82,6.82,1.46,6.56-.95,5.93-5.9-1.06-8.44-5.65-13.13-13.92-14.58-8.95-1.57-17.4.17-25.78,3.28-2.53.94-6.53,5.25-7.71,1.21-1.26-4.32-3.14-10.56,2-14.56,12-9.37,39.55-9.3,51.78-.17,9,6.73,12.35,16.07,12.47,26.81.17,15,.23,29.9,0,44.85,0,2.94,2.43,7.75-3.33,8.31-4.46.44-9.7,1.71-11.34-4.93C552,1238.34,551.09,1237.41,550.32,1236.1Z"/><path d="M785.53,1226.83c-.22,7.72,3.08,15.64-7.91,18-13.36,2.89-27.7-2.6-32.43-13.25-2.18-4.91-2.75-10.17-2.77-15.44q-.12-33,0-65.91c0-5.26,12.21-12.76,16.89-10.29,2.9,1.53,1.7,4.82,1.37,7.06-1.22,8.25,1.43,12.12,10.16,10.37a4.61,4.61,0,0,1,2.61,0c3.47,1.62,9.73-3.57,10.65,3.14a10.9,10.9,0,0,1-12.33,12.51c-9.42-1.09-11.94,2.44-11.17,11.39.8,9.3.13,18.73.18,28.11.1,15.13,4.76,18.73,19.65,15.3C781.8,1227.55,783.24,1227.29,785.53,1226.83Z"/><path d="M718.53,1201.82c0,12.27-.26,24.55.11,36.81.16,5.37-1.37,7.07-6.87,6.86-14.47-.54-12.14,1.42-12.23-12-.14-22.79.39-45.6-.26-68.37-.27-9.28,5.18-7.47,10.54-7.85,5.83-.42,9.26.3,8.88,7.71C718.06,1177.25,718.53,1189.54,718.53,1201.82Z" style="fill:#020202"/><path d="M708.86,1144.68a11.94,11.94,0,0,1-11.73-11.82c0-6.82,5.62-12,12.67-11.6,6.41.35,11.87,6.06,11.54,12.07S714.9,1144.83,708.86,1144.68Z" style="fill:#040404"/><path d="M635.9,1229.51c-14.67,0-26.75-12.75-26.61-28.08.15-15.61,11.92-28.11,26.58-28.22s27.62,13.45,27.53,28.54C663.31,1217.94,651.86,1229.51,635.9,1229.51Z" style="fill:#ced2db"/><path d="M964.38,1230.21c-2.59-.22-5.28-.1-7.76-.75-5.61-1.48-9.49-5-9.26-11.12.21-5.8,4.19-8.84,9.56-9.82,7.86-1.43,15.66-.74,23.48,1,7,1.51,6.66,5.35,3.89,10.21C979.91,1227.36,972.89,1230.11,964.38,1230.21Z" style="fill:#ced2db"/><path d="M527.59,1207.47c4.92.52,9,.66,13,1.45,8.75,1.72,10.2,6,4.75,13.22-5.71,7.55-21.17,10.6-29.71,6-4.16-2.22-5.72-5.69-5.65-10.08.07-4.75,2.9-7.69,7.15-8.91C520.79,1208.17,524.63,1207.94,527.59,1207.47Z" style="fill:#ced2db"/><path d="M744.39,477.82c19.39.06,29,6.71,35,18.74,4.62,9.26.78,18.88-9.35,21.37-4.93,1.21-5.28,3.39-5.07,7.16a46.36,46.36,0,0,1-.11,5.27c-.88,13.79,2.91,19.32,14.66,21.26s21.28-4.13,24.78-15.81c3.25-10.82,10.7-14.4,19.6-9.27,7.11,4.1,8.65,10.43,7.16,18.12-4.22,21.88-29.41,38.26-53.91,34.84-7.91-1.1-15.66-3.18-22-8.17-4-3.18-6.55-2.48-10.54.11-23,14.85-55.35,8.88-69.68-12.54-4-5.94-6.63-12.45-6.62-19.68A15,15,0,0,1,682,524.54c7.74-.83,11.63,3.24,13.6,10.57,3.76,14.08,15.67,20.07,29.17,15.25,7.87-2.8,12.12-7.82,10.68-16.65a29.76,29.76,0,0,1-.44-7.87c.53-4.84-.93-6.81-6.08-8.19-9-2.38-12.7-12-8.7-20.41C726.18,484.79,735.87,477.83,744.39,477.82Z"/><path d="M452.54,296c0-45.71,24.95-78.61,61.64-86.45,40.33-8.61,82,20.6,86.81,60.69.81,6.76-1,12.16-6.73,15.93-7.66,5-15.31,2.17-17.8-6.55-.63-2.24-.77-4.62-1.34-6.88-5.7-22.68-26-38.42-48.06-37.29-24.14,1.24-44.81,19.59-48,43.65-3.43,26.15,4.54,47.89,26.8,63.43,8.48,5.92,10.12,12.59,5.18,20.1s-11.59,8.37-20.46,2.29C464.55,347.13,453.61,321.45,452.54,296Z"/><path d="M971.71,208.34c17.07-.13,32.13,5.34,45.42,16,43.76,35,39,111.74-8.75,141.06-10.39,6.37-20.8,1.84-22-9.7-.71-6.81,3.63-10.44,8.75-14,22.46-15.44,32.34-45.06,23.91-70.76-7.12-21.73-28.69-37-50.07-35.5-22.74,1.61-40.07,17.19-44.54,40.46-1.41,7.32-3.54,13.22-12.6,12.36-7.88-.74-13.56-7.4-12.75-16,2-20.69,11.8-37.17,28.37-49.5A71.74,71.74,0,0,1,971.71,208.34Z"/><path d="M881.83,484.92c-.18-21.47,4-35.18,13.74-46.93,16.5-19.91,42.9-20.48,60.33-1.41,20.21,22.1,20.09,61.68-.24,83.72-17,18.37-41.62,18.4-58.57.07C887.24,509.71,881.85,495,881.83,484.92Z"/><path d="M618.12,485.64c-.17,10.08-5.26,25.24-17.79,37.25-15.51,14.86-37.05,14.94-53,.45-24.78-22.58-24.55-68.11.46-90.51,15.89-14.24,38.34-13.42,53.65,1.95C612.29,445.62,618.22,461.25,618.12,485.64Z"/><path d="M939.06,448.73a12.72,12.72,0,1,1-12.75-12.84A13,13,0,0,1,939.06,448.73Z" style="fill:#ced2db"/><path d="M573.66,435.89a12.87,12.87,0,1,1-12.75,12.83A13,13,0,0,1,573.66,435.89Z" style="fill:#ced2db"/></svg>