<svg id="Слой_1" data-name="Слой 1" xmlns="http://www.w3.org/2000/svg" viewBox="0 0 1500 1500"><path d="M750,1483.5A733.7,733.7,0,0,1,464.49,74.14a733.7,733.7,0,0,1,571,1351.73A729,729,0,0,1,750,1483.5Z" style="fill:#ced2db"/><path d="M750,33a713.5,713.5,0,0,1,400.86,122.43,719.18,719.18,0,0,1,259.81,315.49,716,716,0,0,1-66.1,679.94,719.18,719.18,0,0,1-315.49,259.81,716,716,0,0,1-679.94-66.1A719.18,719.18,0,0,1,89.33,1029.08a716,716,0,0,1,66.1-679.94A719.18,719.18,0,0,1,470.92,89.33,712.45,712.45,0,0,1,750,33h0m0-33h0C335.79,0,0,335.79,0,750H0c0,414.21,335.79,750,750,750h0c414.21,0,750-335.79,750-750h0C1500,335.79,1164.21,0,750,0Z"/><path d="M1213.52,339.74c.1,41.68-12.56,79.32-37.43,112.51-9.7,12.95-11.11,24.91-5.08,39.91,33.4,83,89.59,143,174.27,174.71,20.37,7.64,23.69,21,9.36,37.55a93.37,93.37,0,0,1-11.17,10.79c-14.51,12-16,17.31-8.82,35.15,6.35,15.88,12.91,31.68,19.13,47.62,6.58,16.85,3.79,23.75-12.25,31.55-17.29,8.4-17.31,10.18-15,29.83,6.49,53.81-2.78,103.68-46.55,139.92-28.43,23.54-38.92,50-34.8,86.78,6,53.19-6.72,103.79-32.29,150.89-41.63,76.68-105.8,114.7-193.39,111.64-9-.32-13.69,1.79-18.07,10.33-20.83,40.55-68.45,44.15-96.88,7.43-5.2-6.71-9.61-8.07-17.79-6.95a1023.58,1023.58,0,0,1-236.51,4.41c-14.29-1.37-28.56-3.07-42.73-5.31-6.05-1-8.33,2.23-11.39,6.19-17.59,22.77-40.06,31.41-63.7,24.74a51.79,51.79,0,0,1-34.71-30.59c-4-9.34-9.3-10.67-18-10.22a218.67,218.67,0,0,1-72.21-8.31c-60.63-17.49-99.78-59.27-126.68-114-21.7-44.13-31.23-91-27.14-140.31.23-2.79.06-5.62.45-8.37,4.36-30.29-5.19-54-29.91-73.25-39.62-30.77-53.65-73.88-53.69-122.44a149,149,0,0,1,3.25-28.49c2-10.27-1.5-16.71-10.52-21.44-23.92-12.54-24.9-15.48-14.92-40.79,5.83-14.8,11.87-29.52,17.67-44.34,5.52-14.12,3.57-20.57-8-30.42-5.44-4.64-10.89-9.49-15.32-15.05-11.16-14-7.28-27.32,9.84-33.61,34-12.5,65-30.16,92.17-54.17,39.68-35,68.15-77.63,86.36-127.28,4.69-12.79.81-22.82-6.71-33.24-38.59-53.48-48.22-112.17-27.6-174.7,37-112.28,156.19-148.83,250.59-77.56,20.31,15.33,37.35,33.68,50,55.77,4.86,8.5,10.13,11.48,20.31,9q131.38-32.43,262.93,0c11.51,2.86,16.93-.52,22.93-10.17,31.7-51,77-81.82,137.1-89.79,67.2-8.91,132,32.77,159.33,102.86a250.24,250.24,0,0,1,9.81,33.18C1212.75,314.13,1213.42,326.94,1213.52,339.74Z"/><path d="M1305.27,690.82c-19.43,1.75-26.14,12.8-19.42,30.14,7,18.18,14.85,36,22.24,54.1s4.21,27.2-12.75,36.32c-12.16,6.54-14.56,13.69-8.92,29.11,10.84,29.66,10.87,59.27.37,89-9.61,27.2-28.78,46.48-52.09,62.1-8.12,5.44-17.62,7.24-27.41,7-59.79-1.24-115,13.64-165.73,45.73-17.48,11.07-35.87,20.6-56.58,24.82-38.66,7.89-65.89-12.61-67.57-51.73-1.68-38.91,11.79-72.89,36.17-102.44,9.53-11.55,20.35-22.79,38.87-15.47,7.81,3.09,13.83-3,16.07-10.61,2.94-9.91,1.76-19.34-8.28-25-10.27-5.79-21.36-5.79-32.49-2.7a67.6,67.6,0,0,0-30.33,18.47c-40.12,41.11-58.95,91-54.85,147.83,4.35,60.22,56.79,93,116.69,75.5,20.79-6.06,39.94-15.88,58.6-26.56,35-20,71.8-34.31,112.2-38.25,5.55-.54,11.13-1.12,16.7-1.13,12.61,0,21.58,7.45,23,19.67,6.77,57.62-.17,112.69-28.54,164.46-36.7,67-93.78,94.75-168.39,90.45-4-.23-8-.83-11.93-1.12-16-1.18-20.38,2-24.31,17.75-1.45,5.79-2.4,11.75-6.44,16.51-6.27,7.4-14.26,10.23-23.59,7.69-8.32-2.26-11.74-8.18-12.35-16.89-1-14.73-7.4-20.3-22.29-20.73-26.91-.77-53.12,5.48-79.68,8.29a790.61,790.61,0,0,1-200.55-4.58c-14.6-2.17-29.21-4.41-44.07-3.73-13.29.62-20.68,6.33-21.51,19.12-.71,10.77-4.59,17.56-15.54,19.17-10.61,1.56-20-4.33-24.39-15.18a87.91,87.91,0,0,1-2.94-10.3c-4-15-8.35-18.73-23.6-17.06a223.25,223.25,0,0,1-73.79-3.75c-56.18-12.61-90.82-50.25-114.18-100.22-18.94-40.52-27.87-82.95-22.37-127.86.73-5.93.38-12,.68-18,.8-16,9.26-24.38,25.2-23.66,40,1.81,77.6,12.69,112.9,31.75,26.23,14.17,51.91,29.56,81.51,36.33,56.36,12.9,105.48-23,108.21-80.87,2.46-52-14-98.27-48.28-137.53-14.81-16.94-32.58-29.77-57.09-27-16.42,1.82-24.68,12.11-21.7,26.48,2.27,11,9.2,15.76,19.83,12.38,9-2.85,16.64-1.45,23.31,4.62,37.49,34.11,53.92,76.84,46.87,126.72-4.34,30.69-31.87,45.92-64.1,39.61-20.68-4-39.22-13.28-56.82-24.25-34.55-21.52-71.18-37.41-111.72-43.06-13.41-1.86-27.21-4.57-40.47-3.23-35.24,3.56-58.73-14.72-77.92-40.13-25.86-34.26-30.54-72.85-17.79-113.43,7.14-22.72,7.11-24.31-12.11-36.69-10.1-6.5-13.43-16.09-8.77-28.07,6.63-17.06,13.84-33.9,20.79-50.83,1.36-3.31,2.86-6.57,4-10,5.64-16.72-.6-26.89-19.64-29.28,24.21-12.76,46.09-26.32,65.88-43,55.33-46.71,91.48-105.53,111.13-174.91,3.2-11.31-.67-19.54-8.36-28-37.33-40.95-50.68-89.27-38.09-143,22-93.86,123.82-128.81,201.22-70,22.08,16.77,38.18,38.24,49.69,63.35,7.18,15.67,13.2,18.43,29.15,12.94,39-13.43,79-18.14,120.14-16.72,25.91.9,51.88-.19,77.82.23,29.73.48,58.58,6.5,86.84,15.49,19.94,6.34,23.73,4.73,32.57-13.79,21.89-45.89,56.21-77.43,106.87-87.36,71.4-14,133.91,31.54,145.42,104.36,8.2,51.88-5.93,97.12-41.25,135.63-7.91,8.63-10.06,16.87-6.77,28.14,27.46,94.15,82.75,165.93,169.59,212.62C1299.78,687.57,1301.45,688.61,1305.27,690.82Z" style="fill:#ced2db"/><path d="M742.39,591.15c26.4.09,39.49,9.13,47.65,25.51,6.29,12.61,1.07,25.72-12.73,29.1-6.72,1.65-7.18,4.62-6.9,9.75a63.74,63.74,0,0,1-.15,7.18c-1.2,18.77,4,26.29,20,28.94s29-5.62,33.74-21.53c4.42-14.73,14.57-19.61,26.68-12.61,9.68,5.58,11.77,14.2,9.75,24.66-5.75,29.79-40,52.09-73.4,47.43-10.77-1.5-21.32-4.32-29.92-11.12-5.47-4.33-8.92-3.37-14.35.15-31.25,20.22-75.36,12.1-94.87-17.07-5.4-8.09-9-16.94-9-26.8,0-10.26,8-18.85,18.65-20s15.84,4.42,18.51,14.4c5.13,19.17,21.34,27.33,39.72,20.77,10.71-3.82,16.51-10.65,14.54-22.67a39.93,39.93,0,0,1-.59-10.73c.72-6.58-1.28-9.27-8.29-11.14-12.21-3.25-17.29-16.34-11.84-27.79C717.6,600.64,730.79,591.16,742.39,591.15Z"/><path d="M345.05,343.63c-.06-62.22,34-107,83.92-117.69,54.9-11.72,111.67,28,118.19,82.62,1.09,9.2-1.31,16.57-9.17,21.7-10.42,6.8-20.83,2.95-24.22-8.92-.87-3-1.06-6.29-1.83-9.37-7.76-30.88-35.41-52.31-65.43-50.77-32.88,1.69-61,26.68-65.31,59.43-4.68,35.6,6.18,65.2,36.48,86.36,11.55,8.05,13.78,17.14,7.06,27.36s-15.78,11.39-27.87,3.13C361.4,413.22,346.5,378.26,345.05,343.63Z"/><path d="M1051.88,224.27c23.23-.18,43.75,7.27,61.84,21.75,59.57,47.71,53.11,152.13-11.92,192-14.14,8.68-28.32,2.52-30-13.2-1-9.28,4.94-14.21,11.91-19,30.57-21,44-61.34,32.56-96.33-9.71-29.59-39.06-50.4-68.18-48.34-31,2.2-54.55,23.41-60.64,55.09-1.92,10-4.81,18-17.14,16.83-10.74-1-18.48-10.07-17.36-21.82,2.67-28.16,16.06-50.6,38.62-67.38A97.71,97.71,0,0,1,1051.88,224.27Z"/><path d="M929.51,600.82c-.24-29.23,5.46-47.9,18.7-63.89,22.47-27.12,58.41-27.89,82.14-1.93,27.52,30.1,27.36,84-.33,114-23.08,25-56.65,25.06-79.73.11C936.87,634.57,929.54,614.53,929.51,600.82Z"/><path d="M570.48,601.8c-.23,13.72-7.16,34.36-24.22,50.72-21.12,20.23-50.44,20.33-72.1.6-33.73-30.74-33.42-92.72.63-123.22,21.64-19.39,52.2-18.28,73.05,2.66C562.54,547.31,570.62,568.59,570.48,601.8Z"/><path d="M1007.42,551.55a17.32,17.32,0,1,1-17.35-17.49A17.65,17.65,0,0,1,1007.42,551.55Z" style="fill:#ced2db"/><path d="M510,534.06c9.35,0,17.26,8,17.28,17.54a17.55,17.55,0,0,1-17.31,17.5,17.52,17.52,0,0,1,0-35Z" style="fill:#ced2db"/></svg>