<svg id="Слой_2" data-name="Слой 2" xmlns="http://www.w3.org/2000/svg" xmlns:xlink="http://www.w3.org/1999/xlink" viewBox="0 0 1500 1500"><defs><clipPath id="clip-path"><rect width="1500" height="1500" rx="242.3" style="fill:none"/></clipPath></defs><path d="M242.3,1480A222.3,222.3,0,0,1,20,1257.7V242.3A222.3,222.3,0,0,1,242.3,20H1257.7A222.3,222.3,0,0,1,1480,242.3V1257.7A222.3,222.3,0,0,1,1257.7,1480Z" style="fill:#ced2db"/><path d="M1257.7,40A202.29,202.29,0,0,1,1460,242.3V1257.7A202.29,202.29,0,0,1,1257.7,1460H242.3A202.29,202.29,0,0,1,40,1257.7V242.3A202.29,202.29,0,0,1,242.3,40H1257.7m0-40H242.3C108.48,0,0,108.48,0,242.3V1257.7C0,1391.52,108.48,1500,242.3,1500H1257.7c133.82,0,242.3-108.48,242.3-242.3V242.3C1500,108.48,1391.52,0,1257.7,0Z"/><g style="clip-path:url(#clip-path)"><path d="M1783.59,1169.57c-53.56,53.81-118.34,86-193.12,96.7-29.18,4.19-46.4,17.77-58,44.85-63.94,150-68.75,299.55-.57,449.5,16.41,36.08,3.47,57.57-36.31,60.43a170.15,170.15,0,0,1-28.28-.5c-34.11-3.28-42.85,1.73-56.64,33.91-12.27,28.64-24.18,57.43-36.69,86-13.23,30.19-25.71,35.48-56.41,24.86-33.1-11.44-35.41-9.18-57.67,19.17-61,77.66-137.14,130-240.18,120.26-66.94-6.3-114.6,14.34-156.6,67-60.82,76.2-142.34,125-235.95,152.76-152.38,45.14-284,11.46-392.87-105.3-11.2-12-19.94-15.31-36.59-10-79.06,25.4-145-31.29-134.34-115.2,2-15.36-2-22.78-14-31.88-115.12-87.44-218.27-187.49-310.31-299-16.64-20.16-32.83-40.74-48.2-61.88-6.56-9-13.59-7.85-22.63-6.68-52,6.67-92.06-11.15-113.92-50.18-15.2-27.14-16.6-56.24-5.31-84.12,6.94-17.14,1.77-25.72-10.07-36.4a398.35,398.35,0,0,1-82.29-103.71c-55.58-100.61-52.18-204.85-16.38-310,28.89-84.8,77-157.44,145.78-215.68,3.88-3.29,7.3-7.16,11.36-10.2,44.63-33.4,62.92-76.3,55.81-132.88-11.39-90.65,26.07-164.26,88.56-226.84,12.23-12.25,26.45-22.84,40.87-32.52,15.82-10.63,19.59-23.46,14.07-41.17-14.65-46.95-12.13-52,33.32-71.75,26.58-11.56,53.33-22.73,79.88-34.36,25.28-11.07,31.07-21.89,28.9-49.44-1-13-1.79-26.24-.34-39.11,3.68-32.44,25.81-44.57,56-30.62C54.45,253.37,117,270.47,183,274.59c96.21,6,187.75-12.22,275.15-52.72,22.53-10.43,30.44-28.33,34.18-51.45C511.53,51.83,574.71-36.15,681.82-90.15c192.28-96.93,392.86,9.49,422.67,222.87,6.41,45.91,4.71,91.49-7.45,136.23-4.68,17.22-1.73,27.84,14.62,37.72q211,127.44,338.66,338.63c11.14,18.51,22.48,21.14,42.62,16.45,106.49-24.83,204.6-6.19,292.25,60.94,98,75.08,127.84,212.27,72.73,337.69-8.43,19.18-19.08,37.52-30.1,55.38C1815.59,1135.59,1800,1153,1783.59,1169.57Z"/><path d="M1449.57,1739.94c-27.28-22.78-50.15-17.19-63.84,13.8-14.35,32.48-27.3,65.57-41,98.32-13.83,33-29.59,40.46-63.19,30.36-24.08-7.24-36.39-1.11-49,26-24.24,52.16-62.34,90.34-114.11,115.08-47.41,22.64-96.94,22.79-147.08,12.88-17.47-3.45-32-13.37-44.37-26.24-75.42-78.6-165.73-130.59-272.37-154.56-36.76-8.26-72.72-19.67-104.83-40.9-60-39.63-68.62-101.1-20.4-153.66,47.94-52.27,109.06-78.7,178.52-85.36,27.16-2.6,55.57-3.15,70,30.14,6.08,14,21.73,13.9,34.37,7,16.55-9,27.17-22.64,21.53-42.86-5.78-20.69-20.06-35-38.38-45.31-19.46-11-40.89-15.55-62.85-15.29-104.63,1.27-193.14,41.28-261.06,119.77-72,83.16-46.62,192.9,53.06,247.54,34.58,19,71.89,31,109.67,41.26,70.84,19.25,136.68,48.28,193.78,95.25,7.86,6.45,15.8,12.89,23,20.06,16.25,16.22,18.2,37.38,4.3,55-65.5,82.92-145.37,144.93-248.6,175.06-133.5,39-242.8,1.25-333.38-100.39-4.84-5.42-9.16-11.3-13.91-16.81-19-22.06-28.86-23.63-54.18-8.45-9.33,5.59-18.23,12-29.56,13-17.61,1.45-31.54-5.2-40.29-20.47-7.8-13.64-4.58-25.68,5.85-37.67,17.66-20.3,16.62-35.69-2-55.41-33.67-35.65-75.48-61.38-113.3-91.94-95.6-77.25-179.3-165.61-252.41-264.22-16-21.6-32-43.31-52-61.56-17.91-16.33-34.78-18.49-52.33-3.09-14.77,13-28.53,16.71-44.7,4.68-15.68-11.67-20.24-31.39-11.86-51,2.54-5.94,6.2-11.42,9.47-17,14.25-24.47,13.37-34.88-8.42-52.36-35.54-28.5-65.92-61.55-90.21-99.89-56.13-88.6-52.25-181.69-18-276.14C-466.74,1048-423.59,981.8-358.65,931c8.56-6.69,15.9-14.93,24-22.25,21.61-19.54,43.33-19.48,62.93,2,49.24,53.92,83.6,116.29,104.51,186.31,15.54,52,28.8,104.94,58.2,151.79,56,89.2,165.52,106.19,243.54,35.21,70.14-63.8,108.59-144.57,115-239.33,2.75-40.9-3.62-80.31-38.69-108.36-23.5-18.8-47.4-16.19-62.07,6.15-11.21,17.06-8.45,32.16,9.6,41.5,15.24,7.88,23.3,19.55,24.07,36,4.35,92.22-29.52,168.41-102.85,223.57-45.12,34-100.19,18.1-133.57-31.53-21.42-31.86-33.41-67.62-42-104.43-16.78-72.21-43.5-139.86-88.44-199.35-14.87-19.67-29.15-40.94-47.95-56.28-50-40.81-56.69-94.61-48.68-152,10.81-77.45,54.49-133.18,123.18-169,38.46-20.06,40.47-22.14,31.66-62.85-4.64-21.39,3.43-38,24.86-47.45,30.52-13.44,61.49-25.84,92.26-38.69,6-2.51,12.14-4.79,18-7.67,28.81-14.28,33.88-35.41,12.43-63C68.9,326,114.53,336.72,161.55,340.69,293,351.79,415.31,322.58,530,258.53c18.69-10.43,24.31-26,25.27-46.81C559.91,110.9,605,31.48,690.37-21.51c149.22-92.57,325.39-6.42,349.34,169,6.83,50-.09,98.44-17.61,145.6-10.93,29.43-6.73,40.74,20.89,54.21,67.49,32.91,125.14,78.43,176.26,133.21,32.22,34.53,67.08,66.58,100,100.53,37.67,38.9,67.08,83.83,91.89,131.79,17.52,33.86,24.48,36.67,59.72,24.2,87.29-30.91,172.12-27.33,250.17,25.13,110,73.93,131.86,213.1,52.89,321.71-56.26,77.39-132.74,117.47-227.82,121.57-21.31.92-34.69,8.76-45,27.53-85.89,156.63-107.13,320.29-55.41,492.29C1446.69,1728.68,1447.51,1732.17,1449.57,1739.94Z" style="fill:#ced2db"/><path d="M853,886.57c33.87,34.11,39.08,62.62,28.5,94.23-8.14,24.34-31.74,34.5-53.88,21.08-10.77-6.52-15.19-3.3-21.45,3.67a113.69,113.69,0,0,1-9.43,9.06c-25.74,22.63-28.76,39-11.57,63s44.56,30.09,71.19,15.74c24.66-13.29,44-6.5,50.61,18.12,5.27,19.65-3.13,33.45-19.2,44.32-45.78,31-118.67,15.52-155.65-33.45-11.93-15.8-21.89-33-24.2-52.86-1.47-12.62-7.15-15.83-18.67-18.29C622.91,1037,576.56,969.68,589,907c3.45-17.37,10.18-33.46,22.9-46.12,13.24-13.19,34.63-14,49.77-1.72s14.72,26.08,5.3,42.38c-18.09,31.3-7.72,62.68,24.4,77.91,18.73,8.87,35,7.54,47.93-10.47,3.8-5.28,8-10.54,13.05-14.58,9.42-7.56,10.31-13.58,3.68-25-11.54-19.91-1.22-43.31,20.55-51.05C808.8,866.85,838,871.64,853,886.57Z"/><path d="M660,56c80.07-80.21,181.6-94.1,259.68-43.49,85.81,55.62,107.71,180,45.81,258.64-10.44,13.27-23,19.66-39.74,16.14-22.19-4.67-30.65-23-19.73-42.69,2.81-5.05,6.74-9.46,9.71-14.42,29.79-49.77,21.77-113-18.88-149.67-44.51-40.17-112.94-44.21-160.66-7.57-51.88,39.84-76,91.94-64.23,158.22,4.48,25.25-4.35,39.82-26.16,44.32-21.54,4.45-35-5.64-39.92-31.85C591.42,166.68,617.25,102.46,660,56Z"/><path d="M1724.13,812.65c30.15,29.69,47,65.71,51.62,107.66,15.29,138.18-127.53,264.36-262.69,232-29.4-7-39.72-33.24-21.58-55.6,10.69-13.19,24.65-12,39.81-9.14,66.45,12.31,135.72-22.3,166-82.14,25.61-50.61,14.61-115.24-25.55-150.07-42.71-37-100.41-40.13-149.06-7.16-15.31,10.38-29.39,17-43.76-.4-12.52-15.14-10.82-36.77,5.74-50.46,39.73-32.83,85.87-44.5,136.54-37C1661.17,766.18,1695.62,783.8,1724.13,812.65Z"/><path d="M1081.51,1140c37.34-38,68.73-54.68,106.38-58.21,63.87-6,111.15,39.31,108.28,103.31-3.32,74.2-72.93,143.41-147.23,146.39-62,2.49-105.25-40.7-102.83-102.56C1047.52,1193,1063.9,1157.73,1081.51,1140Z"/><path d="M617.82,678.87c-18,17.37-53.48,35-96.53,34.12-53.26-1.14-91.16-38.78-93.63-92.07C423.8,537.86,504,458.43,587.17,463c52.86,2.91,90.78,43.7,90.67,97.52C677.77,598.46,660.77,636.27,617.82,678.87Z"/><path d="M1245.33,1176.92c-12.19,12.27-32.81,12.41-44.9.32s-12-32.64.24-44.87,32.76-12.37,44.83-.32S1257.52,1164.65,1245.33,1176.92Z" style="fill:#ced2db"/><path d="M627.1,513.64c12,12.07,11.88,32.6-.33,44.85s-32.73,12.43-44.84.26-11.86-32.82.31-44.94S615,501.52,627.1,513.64Z" style="fill:#ced2db"/></g><path d="M1257.7,78A164.29,164.29,0,0,1,1422,242.3V1257.7A164.29,164.29,0,0,1,1257.7,1422H242.3A164.29,164.29,0,0,1,78,1257.7V242.3A164.29,164.29,0,0,1,242.3,78H1257.7m0-78H242.3C108.48,0,0,108.48,0,242.3V1257.7C0,1391.52,108.48,1500,242.3,1500H1257.7c133.82,0,242.3-108.48,242.3-242.3V242.3C1500,108.48,1391.52,0,1257.7,0Z"/></svg>